# xmcd CD database file
#
# Track frame offsets:
#	150
#	13942
#	28162
#	43217
#	55913
#	70405
#	84794
#	99597
#	113051
#	128145
#	142110
#	155649
#	169919
#	191213
#	204459
#	217258
#	230674
#	242208
#	254379
#	265939
#	280448
#	294545
#
# Disc length: 4113 seconds
#
# Revision: 0
# Processed by: cddbd v1.5.2PL0 Copyright (c) Steve Scherf et al.
# Submitted via: CDex 1.51
#
DISCID=61100f16
DTITLE=George Shearing - The Complete Quintet Studio Sessions CD1
DYEAR=1949
DGENRE=Jazz
TTITLE0=Be Bop Fables
TTITLE1=Midnight On Cloud 69
TTITLE2=Sorry Wrong Rhumba
TTITLE3=Cotton Top
TTITLE4=Moon Over Miami
TTITLE5=Life With Feather
TTITLE6=September In The Rain
TTITLE7=Bop, Look And Listen
TTITLE8=I Did'nt Know What Time It Was
TTITLE9=The Continental
TTITLE10=Nothing But D. Best
TTITLE11=East Of The Sun
TTITLE12=In A Chinese Garden
TTITLE13=Conception
TTITLE14=I'll Remember April
TTITLE15=Little White Lies
TTITLE16=Carnegie Horizons
TTITLE17=Jumpin' With Symphony Sid
TTITLE18=November Seascape
TTITLE19=How's Trix ?
TTITLE20=Changing With The Times
TTITLE21=Strollin'
EXTD=YEAR: 1949
EXTT0=
EXTT1=
EXTT2=
EXTT3=
EXTT4=
EXTT5=
EXTT6=
EXTT7=
EXTT8=
EXTT9=
EXTT10=
EXTT11=
EXTT12=
EXTT13=
EXTT14=
EXTT15=
EXTT16=
EXTT17=
EXTT18=
EXTT19=
EXTT20=
EXTT21=
PLAYORDER=
